<?xml version="1.0" encoding="UTF-8"?>
<svg id="katman_1" xmlns="http://www.w3.org/2000/svg" version="1.1" viewBox="0 0 6747 743.55">
  <!-- Generator: Adobe Illustrator 30.6.0, SVG Export Plug-In . SVG Version: 2.1.4 Build 109)  -->
  <defs>
    <style>
      .st0 {
        fill: #f2f2f2;
      }

      .st1 {
        fill: #10b981;
      }
    </style>
  </defs>
  <path class="st0" d="M4654.49,12.17h129.46v110.65c14.02-33.19,40.57-61.96,79.67-86.3,39.09-24.34,86.3-36.51,141.63-36.51s107.7,13.28,152.69,39.83c45.73,26.56,81.51,64.18,107.33,112.86,26.56,47.95,39.83,102.9,39.83,164.86v413.82h-129.46v-414.93c0-59.75-18.07-108.07-54.22-144.95-36.14-37.62-83.35-56.43-141.63-56.43s-105.48,18.81-141.63,56.43c-36.14,36.88-54.22,85.2-54.22,144.95v414.93h-129.46V12.17ZM3978.74,371.77c0,50.16,10.33,94.79,30.98,133.88,20.65,38.36,49.42,68.23,86.3,89.62,36.88,21.39,78.93,32.09,126.14,32.09s89.26-10.7,126.14-32.09c36.88-21.39,65.65-51.27,86.3-89.62,20.65-39.1,30.98-83.72,30.98-133.88s-10.33-94.42-30.98-132.78c-20.65-39.1-49.42-69.34-86.3-90.73-36.88-21.39-78.93-32.09-126.14-32.09s-89.26,10.7-126.14,32.09c-36.88,21.39-65.65,51.64-86.3,90.73-20.65,38.36-30.98,82.62-30.98,132.78ZM4222.17,743.55c-73.77,0-139.42-15.49-196.95-46.47-56.8-31.72-101.06-75.61-132.78-131.67-31.72-56.06-47.58-120.61-47.58-193.63s15.86-136.46,47.58-192.53c32.46-56.8,77.08-100.69,133.88-131.67,57.54-31.72,122.82-47.58,195.85-47.58s137.94,15.86,194.74,47.58c57.54,30.98,102.16,74.87,133.88,131.67,32.46,56.06,48.68,120.24,48.68,192.53s-15.86,137.57-47.58,193.63c-31.72,56.06-76.35,99.95-133.88,131.67-56.8,30.98-122.08,46.47-195.85,46.47ZM3427.94,357.39L3164.6,12.17h154.91l185.89,237.89,184.78-237.89h154.91l-262.23,345.22,284.36,373.99h-154.91l-206.91-267.77-208.02,267.77h-154.91l285.47-373.99ZM3065.26,308.71c-11.8-60.49-38.73-107.7-80.77-141.63-41.31-33.93-90.73-50.9-148.27-50.9s-111.02,17.7-153.8,53.11c-42.05,34.67-68.97,81.51-80.77,140.52l463.61-1.11ZM2831.8,743.55c-72.29,0-136.83-15.49-193.63-46.47-56.8-31.72-101.06-75.61-132.78-131.67-30.98-56.06-46.47-120.24-46.47-192.53s15.86-137.57,47.58-193.63c32.46-56.8,77.08-100.69,133.88-131.67,56.8-31.72,121.71-47.58,194.74-47.58s136.46,16.23,192.53,48.68c56.8,31.72,101.06,76.35,132.78,133.88,31.72,56.8,47.58,121.71,47.58,194.74,0,8.11-.74,21.76-2.21,40.94h-608.56c2.95,41.31,15.12,77.82,36.51,109.54,22.13,31.72,50.53,56.06,85.2,73.03,34.67,16.97,72.29,25.45,112.86,25.45,52.37,0,98.85-13.65,139.42-40.94,40.57-27.29,68.97-64.54,85.2-111.75h139.42c-22.87,83.35-66.39,149.37-130.56,198.06-63.44,47.95-141.26,71.92-233.47,71.92ZM1402.11,12.17h133.88l164.86,528.89L1876.78,12.17h129.46l177.04,528.89L2347.03,12.17h133.88l-237.89,719.21h-120.61l-180.35-533.32-181.46,533.32h-120.61L1402.11,12.17Z"/>
  <path class="st1" d="M6537.22,731.38l-143.48-389.6h68.55l107.51,320.29h1.5l107.89-320.29h67.81l-143.1,389.6h-66.68ZM6209.43,738.87c-37.21,0-69.3-8.24-96.28-24.72-26.72-16.48-47.33-39.71-61.81-69.68-14.24-30.22-21.35-65.68-21.35-106.39v-.37c0-40.21,7.24-75.55,21.73-106.02,14.48-30.72,34.84-54.57,61.06-71.55,26.22-17.23,57.07-25.85,92.53-25.85s65.93,8.24,91.41,24.72c25.72,16.23,45.45,39.08,59.19,68.55,13.74,29.47,20.6,63.68,20.6,102.64v23.98h-313.93v-50.95h281.71l-32.97,47.2v-25.1c0-30.22-4.62-55.19-13.86-74.92-8.99-19.73-21.48-34.34-37.46-43.83-15.98-9.74-34.34-14.61-55.07-14.61s-39.33,5.12-55.82,15.36c-16.48,9.99-29.47,24.97-38.96,44.95-9.49,19.73-14.24,44.08-14.24,73.05v25.1c0,27.47,4.62,50.95,13.86,70.43,9.49,19.48,22.85,34.46,40.08,44.95,17.23,10.24,37.59,15.36,61.06,15.36,16.48,0,31.22-2.5,44.2-7.49,12.99-4.99,23.85-11.86,32.59-20.6,8.74-8.74,14.98-18.73,18.73-29.97l1.12-3.37h64.06l-.75,3.75c-3.25,15.98-9.49,30.97-18.73,44.95-8.99,13.99-20.6,26.35-34.84,37.09-14.24,10.49-30.47,18.73-48.7,24.72-18.23,5.74-37.96,8.62-59.19,8.62ZM5605.93,670.69h109.76c40.96,0,75.55-8.12,103.77-24.35,28.47-16.23,50.07-39.83,64.81-70.8,14.74-31.22,22.1-69.18,22.1-113.88v-.75c0-44.95-7.37-83.04-22.1-114.26-14.73-31.22-36.34-54.82-64.81-70.8-28.22-16.23-62.81-24.35-103.77-24.35h-109.76v419.19ZM5538.5,731.38V190.81h181.69c53.44,0,99.15,10.74,137.11,32.22,37.96,21.23,67.06,51.95,87.28,92.15,20.48,39.96,30.72,88.28,30.72,144.98v.75c0,56.69-10.11,105.27-30.34,145.72-20.23,40.46-49.32,71.43-87.28,92.9-37.96,21.23-83.79,31.84-137.48,31.84h-181.69Z"/>
  <g>
    <polygon class="st0" points="237.44 12.32 0 12.32 0 258.15 474.03 732.18 715.66 732.18 715.66 490.55 237.44 12.32"/>
    <polygon class="st0" points="720.7 12.32 483.26 12.32 483.26 258.15 957.3 732.18 1198.93 732.18 1198.93 490.55 720.7 12.32"/>
    <rect class="st0" x="914.51" y="12.32" width="285.26" height="285.26"/>
  </g>
  <rect class="st1" x="5371.89" y="632.23" width="100.15" height="100.15"/>
</svg>